<svg version="1.1" id="Calque_1" xmlns="http://www.w3.org/2000/svg" xmlns:xlink="http://www.w3.org/1999/xlink" x="0px" y="0px" viewBox="0 0 2854.7 2702.5" style="enable-background:new 0 0 2854.7 2702.5;" xml:space="preserve" fill="white">
<path d="M2854.7,1881.3c-0.6,4.9-1.6,9.8-1.8,14.7c-1.1,49.4-6.8,98.3-16.1,146.8c-19.6,102.1-62.9,193.4-128.7,273.6&#10;&#9;c-98.4,120-224.6,194.1-376.5,224.1c-61.7,12.2-124.2,15.1-186.9,9.9c-109.8-9-213.4-40.1-312.7-87c-91.7-43.3-176-98.2-255.5-160.9&#10;&#9;c-70.5-55.6-135.8-116.9-197.9-181.6c-4.9-5.1-5.3-10.2-5.3-16.3c0-128.3,0-256.6,0-384.8c0-25.7,0.1-51.3-0.1-77&#10;&#9;c0-4.8,1.1-7.9,5.6-10.5c37.3-21.3,74.4-42.9,111.6-64.4c0.8-0.5,1.8-0.6,3.8-1.3c3.2,3.6,6.8,7.5,10.2,11.4&#10;&#9;c48,54.6,99.2,106.1,156.2,151.5c57.3,45.7,118.8,84.4,187.6,110.6c61.1,23.3,124.2,33.8,189.7,31.1&#10;&#9;c137.9-5.6,251.7-95.1,297.8-190.8c24.6-51,34.2-104.6,29.8-161c-5.1-65.6-27-125.9-57.5-183.4c-31.2-58.9-70.6-112-114.1-162.3&#10;&#9;c-2.1-2.4-4.1-5-6.9-8.3c3.7-2.2,6.8-4.1,9.9-5.8c49-28.3,98-56.6,147.1-84.7c6-3.4,9.1-7.6,10.9-14.2&#10;&#9;c16.6-62.4,33.4-124.7,50.3-187c0.9-3.1,1.9-6.2,3.2-10.3c2.1,1.7,3.7,2.7,5,4c110.1,113.7,207.6,236.9,284.5,375.6&#10;&#9;c57.3,103.3,100.9,212,127.5,327.2c10.7,46.1,18.9,92.6,23.2,139.7c1.8,19.9,2.6,39.8,4,59.8c0.3,4.6,1.1,9.1,1.7,13.7&#10;&#9;L2854.7,1881.3L2854.7,1881.3z"/>
<path d="M716.2,0c4.2,0.6,8.5,1.4,12.7,1.7c21.2,1.6,42.5,3,63.8,4.5c2.2,0.2,4.4,0.8,7,1.4v410c-3.8,0-7.3,0.2-10.8,0&#10;&#9;c-30.3-2.1-60.6-1.9-90.8,0.1c-58.9,3.9-116.2,14.3-170,39.7c-85.5,40.5-135.6,107.9-151.9,200.9c-8.3,47.4-7.1,94.8-0.6,142.3&#10;&#9;c11.7,86.4,38.7,168.4,71.8,248.6c42.5,103,95,200.9,152,296.5c60.3,101,125.8,198.6,194.5,294c4.5,6.2,6.6,12.3,6.6,20.1&#10;&#9;c-0.2,142.3-0.2,284.5-0.2,426.8c0,3.5,0,7.1,0,12.5c-3.8-3.2-6-5-8.1-7c-195.4-190-361.5-402.7-495.8-640&#10;&#9;c-82.1-145.1-152.5-295.7-208.4-452.9c-27.8-78.2-50.7-157.7-66.5-239.2c-9.7-50-16.8-100.5-19.1-151.5c-0.9-19.6-2.9-39.3-2.2-58.9&#10;&#9;c2.4-63.7,9.6-126.8,29.4-187.8C70.8,235.1,152.3,142.8,270.3,82c57.5-29.6,118.5-49,181.7-61.9c49.3-10,99.2-15.8,149.5-18.4&#10;&#9;c3.6-0.2,7.2-1.1,10.7-1.7C646.9,0,681.5,0,716.2,0L716.2,0z"/>
<path d="M1294.4,2695.1c-2.4-2.3-4.8-4.5-7.1-6.8c-134.6-135.9-269.1-271.8-403.7-407.5c-5.1-5.1-7.2-10.2-7.2-17.5&#10;&#9;c0.2-741.3,0.2-1482.7,0.2-2224V28.8l2.1-0.9c2.5,2.4,5,4.8,7.5,7.3C1020.7,170,1155.3,304.9,1290,439.7c4.8,4.8,7,9.7,7,16.6&#10;&#9;c-0.3,198.9-0.4,397.8-0.6,596.7c0,15,0,30,0,45c0,2.9,0,5.8,0,8.2c1.1,0.7,1.4,1,1.7,1.1c0.3,0.1,0.7,0.1,0.9,0&#10;&#9;c0.6-0.2,1.2-0.4,1.8-0.7c0.3-0.1,0.6-0.3,0.9-0.5c0.9-0.5,1.8-1,2.6-1.5c377.4-219.1,754.7-438.2,1132.1-657.3&#10;&#9;c0.3-0.2,0.6-0.3,0.9-0.5c0.3-0.1,0.6-0.3,0.9-0.3c0.3,0,0.7,0,1.7,0.1c-0.5,2.8-0.8,5.7-1.5,8.4c-49.4,184.8-99,369.5-148.3,554.3&#10;&#9;c-1.9,7-5.3,11.3-11.6,14.9c-323.4,186.8-646.8,373.7-970.1,560.6c-14.6,8.4-12.1,4.4-12.1,20.6c0,162.6,0,325.2,0.1,487.8&#10;&#9;c0,142.3,0.1,284.5,0.1,426.8c0,54.6,0.1,109.3,0.2,163.9c0,3.6,0,7.1,0,10.7C1296,2694.8,1295.2,2694.9,1294.4,2695.1&#10;&#9;L1294.4,2695.1z"/>
<path d="M968.2,15.5c14.9,3.1,29.9,6.1,44.7,9.5c162.5,36.8,318.7,92.1,470.6,159.9c216.2,96.5,417.8,217.6,604.3,363.4&#10;&#9;c3.1,2.4,6.1,5,10.5,8.5c-103.5,59.5-206,118.3-308.8,177.4c-123.2-95.9-262.8-153.1-416.1-180.3v-11.4c0-35.6-0.1-71.3,0.1-106.9&#10;&#9;c0-6-1.5-10.6-5.6-15.2c-34.7-38.2-68.7-77.1-103.9-114.9c-26.4-28.2-54.6-54.7-81.5-82.4C1115.7,154.8,1045.4,90,975.1,25.2&#10;&#9;c-2.7-2.4-5.5-4.7-8.2-7.1C967.3,17.3,967.8,16.4,968.2,15.5L968.2,15.5z"/>
<path d="M1373.7,2514.1v-206.2c0.6-0.2,0.9-0.4,1.2-0.4c0.3,0,0.7,0,0.9,0.2c1.4,1.4,2.9,2.7,4.2,4.2&#10;&#9;c117.9,132.2,238.4,262,361.8,390.7C1728.8,2700.2,1401.6,2532.3,1373.7,2514.1z"/>
</svg>